<svg class="railroad" viewBox="0 0 540 724" xmlns="http://www.w3.org/2000/svg" xmlns:xlink="http://www.w3.org/1999/xlink">
<style type="text/css">

    svg.railroad {
        background-color: hsl(30, 20%, 95%);
        background-size: 15px 15px;
        background-image: linear-gradient(to right, rgba(30, 30, 30, .05) 1px, transparent 1px),
                          linear-gradient(to bottom, rgba(30, 30, 30, .05) 1px, transparent 1px);
    }

    svg.railroad path {
        stroke-width: 3px;
        stroke: black;
        fill: transparent;
    }

    svg.railroad .debug {
        stroke-width: 1px;
        stroke: red;
    }

    svg.railroad text {
        font: 14px monospace;
        text-anchor: middle;
    }

    svg.railroad .nonterminal text {
        font-weight: bold;
    }

    svg.railroad text.comment {
        font: italic 12px monospace;
    }

    svg.railroad rect {
        stroke-width: 3px;
        stroke: black;
        fill:hsl(-290, 70%, 90%);
    }

    svg.railroad g.labeledbox > rect {
        stroke-width: 1px;
        stroke: grey;
        stroke-dasharray: 5px;
        fill:rgba(90, 90, 150, .1);
    }</style>
<g class="verticalgrid">
<g class="sequence">
<path d=" M 10 11 v 20 m 10 -20 v 20 m -10 -10 h 20"/>
<text class="comment" x="62" y="26">
value</text>
<g class="choice">
<path d=" M 95 21 h 24 m 52 0 h 48"/>
<g class="nonterminal">
<rect height="22" width="52" x="119" y="10"/>
<text x="145" y="26">
dict</text>
</g>
<path d=" M 95 21 a 12 12 0 0 1 12 12 v 9 m 100 0 v -9 a 12 12 0 0 1 12 -12"/>
<path d=" M 107 42 v 33 m 100 0 v -33"/>
<path d=" M 107 75 v 33 m 100 0 v -33"/>
<path d=" M 107 108 v 33 m 100 0 v -33"/>
<path d=" M 107 141 v 33 m 100 0 v -33"/>
<path d=" M 107 174 v 33 m 100 0 v -33"/>
<path d=" M 107 42 v 0 a 12 12 0 0 0 12 12 m 52 0 h 24 a 12 12 0 0 0 12 -12 v 0"/>
<g class="nonterminal">
<rect height="22" width="52" x="119" y="43"/>
<text x="145" y="59">
list</text>
</g>
<path d=" M 107 75 v 0 a 12 12 0 0 0 12 12 m 68 0 h 8 a 12 12 0 0 0 12 -12 v 0"/>
<g class="nonterminal">
<rect height="22" width="68" x="119" y="76"/>
<text x="153" y="92">
STRING</text>
</g>
<path d=" M 107 108 v 0 a 12 12 0 0 0 12 12 m 68 0 h 8 a 12 12 0 0 0 12 -12 v 0"/>
<g class="nonterminal">
<rect height="22" width="68" x="119" y="109"/>
<text x="153" y="125">
NUMBER</text>
</g>
<path d=" M 107 141 v 0 a 12 12 0 0 0 12 12 m 68 0 h 8 a 12 12 0 0 0 12 -12 v 0"/>
<g class="terminal">
<rect height="22" rx="10" ry="10" width="68" x="119" y="142"/>
<text x="153" y="158">
&#x27;true&#x27;</text>
</g>
<path d=" M 107 174 v 0 a 12 12 0 0 0 12 12 m 76 0 h 0 a 12 12 0 0 0 12 -12 v 0"/>
<g class="terminal">
<rect height="22" rx="10" ry="10" width="76" x="119" y="175"/>
<text x="157" y="191">
&#x27;false&#x27;</text>
</g>
<path d=" M 107 207 v 0 a 12 12 0 0 0 12 12 m 68 0 h 8 a 12 12 0 0 0 12 -12 v 0"/>
<g class="terminal">
<rect height="22" rx="10" ry="10" width="68" x="119" y="208"/>
<text x="153" y="224">
&#x27;null&#x27;</text>
</g>
</g>
<path d=" M 229 21 h 20 m -10 -10 v 20 m 10 -20 v 20"/>
<path d=" M 30 21 h 10"/>
<path d=" M 85 21 h 10"/>
<path d=" M 219 21 h 10"/>
</g>
<g class="sequence">
<path d=" M 10 268 v 20 m 10 -20 v 20 m -10 -10 h 20"/>
<text class="comment" x="59" y="283">
list</text>
<g class="sequence">
<g class="terminal">
<rect height="22" rx="10" ry="10" width="44" x="88" y="267"/>
<text x="110" y="283">
&#x27;[&#x27;</text>
</g>
<g class="optional">
<path d=" M 142 278 h 24 m -24 0 a 12 12 0 0 0 12 -12 v -12 a 12 12 0 0 1 12 -12 h 256 m -125 0 l -5 -5 m 0 10 l 5 -5 m 125 0 a 12 12 0 0 1 12 12 v 12 a 12 12 0 0 0 12 12 h -24"/>
<g class="sequence">
<g class="nonterminal">
<rect height="22" width="60" x="166" y="267"/>
<text x="196" y="283">
value</text>
</g>
<g class="optional">
<path d=" M 236 278 h 24 m -24 0 a 12 12 0 0 0 12 -12 v 0 a 12 12 0 0 1 12 -12 h 138 m -66 0 l -5 -5 m 0 10 l 5 -5 m 66 0 a 12 12 0 0 1 12 12 v 0 a 12 12 0 0 0 12 12 h -24"/>
<g class="repeat">
<path d=" M 260 278 h 12 m 114 0 h 12 m -12 0 a 12 12 0 0 1 12 12 v 0 a 12 12 0 0 1 -12 12 m 0 0 h -114 m 60 0 l 5 -5 m 0 10 l -5 -5 m -60 0 a 12 12 0 0 1 -12 -12 v 0 a 12 12 0 0 1 12 -12"/>
<g/>
<g class="sequence">
<g class="terminal">
<rect height="22" rx="10" ry="10" width="44" x="272" y="267"/>
<text x="294" y="283">
&#x27;,&#x27;</text>
</g>
<g class="nonterminal">
<rect height="22" width="60" x="326" y="267"/>
<text x="356" y="283">
value</text>
</g>
<path d=" M 316 278 h 10"/>
</g>
</g>
</g>
<path d=" M 226 278 h 10"/>
</g>
</g>
<g class="terminal">
<rect height="22" rx="10" ry="10" width="44" x="456" y="267"/>
<text x="478" y="283">
&#x27;]&#x27;</text>
</g>
<path d=" M 132 278 h 10"/>
<path d=" M 446 278 h 10"/>
</g>
<path d=" M 510 278 h 20 m -10 -10 v 20 m 10 -20 v 20"/>
<path d=" M 30 278 h 10"/>
<path d=" M 78 278 h 10"/>
<path d=" M 500 278 h 10"/>
</g>
<g class="sequence">
<path d=" M 10 340 v 20 m 10 -20 v 20 m -10 -10 h 20"/>
<text class="comment" x="59" y="355">
dict</text>
<g class="sequence">
<g class="terminal">
<rect height="22" rx="10" ry="10" width="44" x="88" y="339"/>
<text x="110" y="355">
&#x27;{&#x27;</text>
</g>
<g class="optional">
<path d=" M 142 350 h 24 m -24 0 a 12 12 0 0 0 12 -12 v -12 a 12 12 0 0 1 12 -12 h 240 m -117 0 l -5 -5 m 0 10 l 5 -5 m 117 0 a 12 12 0 0 1 12 12 v 12 a 12 12 0 0 0 12 12 h -24"/>
<g class="sequence">
<g class="nonterminal">
<rect height="22" width="52" x="166" y="339"/>
<text x="192" y="355">
pair</text>
</g>
<g class="optional">
<path d=" M 228 350 h 24 m -24 0 a 12 12 0 0 0 12 -12 v 0 a 12 12 0 0 1 12 -12 h 130 m -62 0 l -5 -5 m 0 10 l 5 -5 m 62 0 a 12 12 0 0 1 12 12 v 0 a 12 12 0 0 0 12 12 h -24"/>
<g class="repeat">
<path d=" M 252 350 h 12 m 106 0 h 12 m -12 0 a 12 12 0 0 1 12 12 v 0 a 12 12 0 0 1 -12 12 m 0 0 h -106 m 56 0 l 5 -5 m 0 10 l -5 -5 m -56 0 a 12 12 0 0 1 -12 -12 v 0 a 12 12 0 0 1 12 -12"/>
<g/>
<g class="sequence">
<g class="terminal">
<rect height="22" rx="10" ry="10" width="44" x="264" y="339"/>
<text x="286" y="355">
&#x27;,&#x27;</text>
</g>
<g class="nonterminal">
<rect height="22" width="52" x="318" y="339"/>
<text x="344" y="355">
pair</text>
</g>
<path d=" M 308 350 h 10"/>
</g>
</g>
</g>
<path d=" M 218 350 h 10"/>
</g>
</g>
<g class="terminal">
<rect height="22" rx="10" ry="10" width="44" x="440" y="339"/>
<text x="462" y="355">
&#x27;}&#x27;</text>
</g>
<path d=" M 132 350 h 10"/>
<path d=" M 430 350 h 10"/>
</g>
<path d=" M 494 350 h 20 m -10 -10 v 20 m 10 -20 v 20"/>
<path d=" M 30 350 h 10"/>
<path d=" M 78 350 h 10"/>
<path d=" M 484 350 h 10"/>
</g>
<g class="sequence">
<path d=" M 10 387 v 20 m 10 -20 v 20 m -10 -10 h 20"/>
<text class="comment" x="59" y="402">
pair</text>
<g class="sequence">
<g class="nonterminal">
<rect height="22" width="68" x="88" y="386"/>
<text x="122" y="402">
STRING</text>
</g>
<g class="terminal">
<rect height="22" rx="10" ry="10" width="44" x="166" y="386"/>
<text x="188" y="402">
&#x27;:&#x27;</text>
</g>
<g class="nonterminal">
<rect height="22" width="60" x="220" y="386"/>
<text x="250" y="402">
value</text>
</g>
<path d=" M 156 397 h 10"/>
<path d=" M 210 397 h 10"/>
</g>
<path d=" M 290 397 h 20 m -10 -10 v 20 m 10 -20 v 20"/>
<path d=" M 30 397 h 10"/>
<path d=" M 78 397 h 10"/>
<path d=" M 280 397 h 10"/>
</g>
<g class="sequence">
<path d=" M 10 421 v 20 m 10 -20 v 20 m -10 -10 h 20"/>
<text class="comment" x="59" y="436">
TRUE</text>
<g class="terminal">
<rect height="22" rx="10" ry="10" width="68" x="88" y="420"/>
<text x="122" y="436">
&#x27;true&#x27;</text>
</g>
<path d=" M 166 431 h 20 m -10 -10 v 20 m 10 -20 v 20"/>
<path d=" M 30 431 h 10"/>
<path d=" M 78 431 h 10"/>
<path d=" M 156 431 h 10"/>
</g>
<g class="sequence">
<path d=" M 10 455 v 20 m 10 -20 v 20 m -10 -10 h 20"/>
<text class="comment" x="62" y="470">
FALSE</text>
<g class="terminal">
<rect height="22" rx="10" ry="10" width="76" x="95" y="454"/>
<text x="133" y="470">
&#x27;false&#x27;</text>
</g>
<path d=" M 181 465 h 20 m -10 -10 v 20 m 10 -20 v 20"/>
<path d=" M 30 465 h 10"/>
<path d=" M 85 465 h 10"/>
<path d=" M 171 465 h 10"/>
</g>
<g class="sequence">
<path d=" M 10 489 v 20 m 10 -20 v 20 m -10 -10 h 20"/>
<text class="comment" x="59" y="504">
NULL</text>
<g class="terminal">
<rect height="22" rx="10" ry="10" width="68" x="88" y="488"/>
<text x="122" y="504">
&#x27;null&#x27;</text>
</g>
<path d=" M 166 499 h 20 m -10 -10 v 20 m 10 -20 v 20"/>
<path d=" M 30 499 h 10"/>
<path d=" M 78 499 h 10"/>
<path d=" M 156 499 h 10"/>
</g>
<g class="sequence">
<path d=" M 10 523 v 20 m 10 -20 v 20 m -10 -10 h 20"/>
<text class="comment" x="73" y="538">
LBRACKET</text>
<g class="terminal">
<rect height="22" rx="10" ry="10" width="44" x="116" y="522"/>
<text x="138" y="538">
&#x27;[&#x27;</text>
</g>
<path d=" M 170 533 h 20 m -10 -10 v 20 m 10 -20 v 20"/>
<path d=" M 30 533 h 10"/>
<path d=" M 106 533 h 10"/>
<path d=" M 160 533 h 10"/>
</g>
<g class="sequence">
<path d=" M 10 557 v 20 m 10 -20 v 20 m -10 -10 h 20"/>
<text class="comment" x="73" y="572">
RBRACKET</text>
<g class="terminal">
<rect height="22" rx="10" ry="10" width="44" x="116" y="556"/>
<text x="138" y="572">
&#x27;]&#x27;</text>
</g>
<path d=" M 170 567 h 20 m -10 -10 v 20 m 10 -20 v 20"/>
<path d=" M 30 567 h 10"/>
<path d=" M 106 567 h 10"/>
<path d=" M 160 567 h 10"/>
</g>
<g class="sequence">
<path d=" M 10 591 v 20 m 10 -20 v 20 m -10 -10 h 20"/>
<text class="comment" x="66" y="606">
LBRACE</text>
<g class="terminal">
<rect height="22" rx="10" ry="10" width="44" x="102" y="590"/>
<text x="124" y="606">
&#x27;{&#x27;</text>
</g>
<path d=" M 156 601 h 20 m -10 -10 v 20 m 10 -20 v 20"/>
<path d=" M 30 601 h 10"/>
<path d=" M 92 601 h 10"/>
<path d=" M 146 601 h 10"/>
</g>
<g class="sequence">
<path d=" M 10 625 v 20 m 10 -20 v 20 m -10 -10 h 20"/>
<text class="comment" x="66" y="640">
RBRACE</text>
<g class="terminal">
<rect height="22" rx="10" ry="10" width="44" x="102" y="624"/>
<text x="124" y="640">
&#x27;}&#x27;</text>
</g>
<path d=" M 156 635 h 20 m -10 -10 v 20 m 10 -20 v 20"/>
<path d=" M 30 635 h 10"/>
<path d=" M 92 635 h 10"/>
<path d=" M 146 635 h 10"/>
</g>
<g class="sequence">
<path d=" M 10 659 v 20 m 10 -20 v 20 m -10 -10 h 20"/>
<text class="comment" x="62" y="674">
COMMA</text>
<g class="terminal">
<rect height="22" rx="10" ry="10" width="44" x="95" y="658"/>
<text x="117" y="674">
&#x27;,&#x27;</text>
</g>
<path d=" M 149 669 h 20 m -10 -10 v 20 m 10 -20 v 20"/>
<path d=" M 30 669 h 10"/>
<path d=" M 85 669 h 10"/>
<path d=" M 139 669 h 10"/>
</g>
<g class="sequence">
<path d=" M 10 693 v 20 m 10 -20 v 20 m -10 -10 h 20"/>
<text class="comment" x="62" y="708">
COLON</text>
<g class="terminal">
<rect height="22" rx="10" ry="10" width="44" x="95" y="692"/>
<text x="117" y="708">
&#x27;:&#x27;</text>
</g>
<path d=" M 149 703 h 20 m -10 -10 v 20 m 10 -20 v 20"/>
<path d=" M 30 703 h 10"/>
<path d=" M 85 703 h 10"/>
<path d=" M 139 703 h 10"/>
</g>
</g>
</svg>

