<svg class="railroad" viewBox="0 0 625 985" xmlns="http://www.w3.org/2000/svg" xmlns:xlink="http://www.w3.org/1999/xlink">
<style type="text/css">

    svg.railroad {
        background-color: hsl(30, 20%, 95%);
        background-size: 15px 15px;
        background-image: linear-gradient(to right, rgba(30, 30, 30, .05) 1px, transparent 1px),
                          linear-gradient(to bottom, rgba(30, 30, 30, .05) 1px, transparent 1px);
    }

    svg.railroad path {
        stroke-width: 3px;
        stroke: black;
        fill: transparent;
    }

    svg.railroad .debug {
        stroke-width: 1px;
        stroke: red;
    }

    svg.railroad text {
        font: 14px monospace;
        text-anchor: middle;
    }

    svg.railroad .nonterminal text {
        font-weight: bold;
    }

    svg.railroad text.comment {
        font: italic 12px monospace;
    }

    svg.railroad rect {
        stroke-width: 3px;
        stroke: black;
        fill:hsl(-290, 70%, 90%);
    }

    svg.railroad g.labeledbox > rect {
        stroke-width: 1px;
        stroke: grey;
        stroke-dasharray: 5px;
        fill:rgba(90, 90, 150, .1);
    }</style>
<g class="verticalgrid">
<g class="sequence">
<path d=" M 10 24 v 20 m 10 -20 v 20 m -10 -10 h 20"/>
<text class="comment" x="69" y="39">
grammar</text>
<g class="sequence">
<g class="optional">
<path d=" M 109 34 h 24 m -24 0 a 12 12 0 0 0 12 -12 v 0 a 12 12 0 0 1 12 -12 h 130 m -62 0 l -5 -5 m 0 10 l 5 -5 m 62 0 a 12 12 0 0 1 12 12 v 0 a 12 12 0 0 0 12 12 h -24"/>
<g class="repeat">
<path d=" M 133 34 h 12 m 106 0 h 12 m -12 0 a 12 12 0 0 1 12 12 v 0 a 12 12 0 0 1 -12 12 m 0 0 h -106 m 56 0 l 5 -5 m 0 10 l -5 -5 m -56 0 a 12 12 0 0 1 -12 -12 v 0 a 12 12 0 0 1 12 -12"/>
<g/>
<g class="sequence">
<g class="nonterminal">
<rect height="22" width="60" x="145" y="23"/>
<text x="175" y="39">
entry</text>
</g>
<g class="nonterminal">
<rect height="22" width="36" x="215" y="23"/>
<text x="233" y="39">
NL</text>
</g>
<path d=" M 205 34 h 10"/>
</g>
</g>
</g>
<g class="optional">
<path d=" M 297 34 h 24 m -24 0 a 12 12 0 0 0 12 -12 v 0 a 12 12 0 0 1 12 -12 h 60 m -27 0 l -5 -5 m 0 10 l 5 -5 m 27 0 a 12 12 0 0 1 12 12 v 0 a 12 12 0 0 0 12 12 h -24"/>
<g class="nonterminal">
<rect height="22" width="60" x="321" y="23"/>
<text x="351" y="39">
entry</text>
</g>
</g>
<path d=" M 287 34 h 10"/>
</g>
<path d=" M 415 34 h 20 m -10 -10 v 20 m 10 -20 v 20"/>
<path d=" M 30 34 h 10"/>
<path d=" M 99 34 h 10"/>
<path d=" M 405 34 h 10"/>
</g>
<g class="sequence">
<path d=" M 10 71 v 20 m 10 -20 v 20 m -10 -10 h 20"/>
<text class="comment" x="62" y="86">
entry</text>
<g class="choice">
<path d=" M 95 81 h 24 m 52 0 h 72 m -33 0 l -5 -5 m 0 10 l 5 -5 m 33 0"/>
<g class="nonterminal">
<rect height="22" width="52" x="119" y="70"/>
<text x="145" y="86">
rule</text>
</g>
<path d=" M 95 81 a 12 12 0 0 1 12 12 v 9 m 124 0 v -9 a 12 12 0 0 1 12 -12"/>
<path d=" M 107 102 v 0 a 12 12 0 0 0 12 12 m 100 0 h 0 a 12 12 0 0 0 12 -12 v 0"/>
<g class="nonterminal">
<rect height="22" width="100" x="119" y="103"/>
<text x="169" y="119">
token_rule</text>
</g>
</g>
<path d=" M 253 81 h 20 m -10 -10 v 20 m 10 -20 v 20"/>
<path d=" M 30 81 h 10"/>
<path d=" M 85 81 h 10"/>
<path d=" M 243 81 h 10"/>
</g>
<g class="sequence">
<path d=" M 10 151 v 20 m 10 -20 v 20 m -10 -10 h 20"/>
<text class="comment" x="59" y="166">
rule</text>
<g class="sequence">
<g class="nonterminal">
<rect height="22" width="92" x="88" y="150"/>
<text x="134" y="166">
RULE_NAME</text>
</g>
<g class="optional">
<path d=" M 190 161 h 24 m -24 0 a 12 12 0 0 0 12 -12 v 0 a 12 12 0 0 1 12 -12 h 36 a 12 12 0 0 1 12 12 v 0 a 12 12 0 0 0 12 12 h -24"/>
<g class="nonterminal">
<rect height="22" width="36" x="214" y="150"/>
<text x="232" y="166">
NL</text>
</g>
</g>
<g class="terminal">
<rect height="22" rx="10" ry="10" width="44" x="284" y="150"/>
<text x="306" y="166">
&#x27;:&#x27;</text>
</g>
<g class="nonterminal">
<rect height="22" width="92" x="338" y="150"/>
<text x="384" y="166">
rule_body</text>
</g>
<path d=" M 180 161 h 10"/>
<path d=" M 274 161 h 10"/>
<path d=" M 328 161 h 10"/>
</g>
<path d=" M 440 161 h 20 m -10 -10 v 20 m 10 -20 v 20"/>
<path d=" M 30 161 h 10"/>
<path d=" M 78 161 h 10"/>
<path d=" M 430 161 h 10"/>
</g>
<g class="sequence">
<path d=" M 10 210 v 20 m 10 -20 v 20 m -10 -10 h 20"/>
<text class="comment" x="76" y="225">
rule_body</text>
<g class="sequence">
<g class="repeat">
<path d=" M 123 220 h 12 m 92 0 h 12 m -12 0 a 12 12 0 0 1 12 12 v 0 a 12 12 0 0 1 -12 12 m 0 0 h -92 m 49 0 l 5 -5 m 0 10 l -5 -5 m -49 0 a 12 12 0 0 1 -12 -12 v 0 a 12 12 0 0 1 12 -12"/>
<g/>
<g class="nonterminal">
<rect height="22" width="92" x="135" y="209"/>
<text x="181" y="225">
rule_part</text>
</g>
</g>
<g class="optional">
<path d=" M 249 220 h 24 m -24 0 a 12 12 0 0 0 12 -12 v -12 a 12 12 0 0 1 12 -12 h 288 m -141 0 l -5 -5 m 0 10 l 5 -5 m 141 0 a 12 12 0 0 1 12 12 v 12 a 12 12 0 0 0 12 12 h -24"/>
<g class="repeat">
<path d=" M 273 220 h 12 m 264 0 h 12 m -12 0 a 12 12 0 0 1 12 12 v 10 a 12 12 0 0 1 -12 12 m 0 0 h -264 m 135 0 l 5 -5 m 0 10 l -5 -5 m -135 0 a 12 12 0 0 1 -12 -12 v -10 a 12 12 0 0 1 12 -12"/>
<g/>
<g class="sequence">
<g class="optional">
<path d=" M 285 220 h 24 m -24 0 a 12 12 0 0 0 12 -12 v 0 a 12 12 0 0 1 12 -12 h 36 a 12 12 0 0 1 12 12 v 0 a 12 12 0 0 0 12 12 h -24"/>
<g class="nonterminal">
<rect height="22" width="36" x="309" y="209"/>
<text x="327" y="225">
NL</text>
</g>
</g>
<g class="terminal">
<rect height="22" rx="10" ry="10" width="44" x="379" y="209"/>
<text x="401" y="225">
&#x27;|&#x27;</text>
</g>
<g class="repeat">
<path d=" M 433 220 h 12 m 92 0 h 12 m -12 0 a 12 12 0 0 1 12 12 v 0 a 12 12 0 0 1 -12 12 m 0 0 h -92 m 49 0 l 5 -5 m 0 10 l -5 -5 m -49 0 a 12 12 0 0 1 -12 -12 v 0 a 12 12 0 0 1 12 -12"/>
<g/>
<g class="nonterminal">
<rect height="22" width="92" x="445" y="209"/>
<text x="491" y="225">
rule_part</text>
</g>
</g>
<path d=" M 369 220 h 10"/>
<path d=" M 423 220 h 10"/>
</g>
</g>
</g>
<path d=" M 239 220 h 10"/>
</g>
<path d=" M 595 220 h 20 m -10 -10 v 20 m 10 -20 v 20"/>
<path d=" M 30 220 h 10"/>
<path d=" M 113 220 h 10"/>
<path d=" M 585 220 h 10"/>
</g>
<g class="sequence">
<path d=" M 10 267 v 20 m 10 -20 v 20 m -10 -10 h 20"/>
<text class="comment" x="69" y="282">
binding</text>
<g class="sequence">
<g class="nonterminal">
<rect height="22" width="92" x="109" y="266"/>
<text x="155" y="282">
RULE_NAME</text>
</g>
<g class="terminal">
<rect height="22" rx="10" ry="10" width="44" x="211" y="266"/>
<text x="233" y="282">
&#x27;=&#x27;</text>
</g>
<path d=" M 201 277 h 10"/>
</g>
<path d=" M 265 277 h 20 m -10 -10 v 20 m 10 -20 v 20"/>
<path d=" M 30 277 h 10"/>
<path d=" M 99 277 h 10"/>
<path d=" M 255 277 h 10"/>
</g>
<g class="sequence">
<path d=" M 10 314 v 20 m 10 -20 v 20 m -10 -10 h 20"/>
<text class="comment" x="76" y="329">
rule_part</text>
<g class="sequence">
<g class="optional">
<path d=" M 123 324 h 24 m -24 0 a 12 12 0 0 0 12 -12 v 0 a 12 12 0 0 1 12 -12 h 76 m -35 0 l -5 -5 m 0 10 l 5 -5 m 35 0 a 12 12 0 0 1 12 12 v 0 a 12 12 0 0 0 12 12 h -24"/>
<g class="nonterminal">
<rect height="22" width="76" x="147" y="313"/>
<text x="185" y="329">
binding</text>
</g>
</g>
<g class="choice">
<path d=" M 257 324 h 24 m 218 0 h 24"/>
<g class="sequence">
<g class="nonterminal">
<rect height="22" width="92" x="281" y="313"/>
<text x="327" y="329">
rule_elem</text>
</g>
<g class="optional">
<path d=" M 383 324 h 24 m -24 0 a 12 12 0 0 0 12 -12 v 0 a 12 12 0 0 1 12 -12 h 68 m -31 0 l -5 -5 m 0 10 l 5 -5 m 31 0 a 12 12 0 0 1 12 12 v 0 a 12 12 0 0 0 12 12 h -24"/>
<g class="nonterminal">
<rect height="22" width="68" x="407" y="313"/>
<text x="441" y="329">
suffix</text>
</g>
</g>
<path d=" M 373 324 h 10"/>
</g>
<path d=" M 257 324 a 12 12 0 0 1 12 12 v 9 m 242 0 v -9 a 12 12 0 0 1 12 -12"/>
<path d=" M 269 345 v 0 a 12 12 0 0 0 12 12 m 200 0 h 18 a 12 12 0 0 0 12 -12 v 0"/>
<g class="sequence">
<g class="terminal">
<rect height="22" rx="10" ry="10" width="44" x="281" y="346"/>
<text x="303" y="362">
&#x27;[&#x27;</text>
</g>
<g class="nonterminal">
<rect height="22" width="92" x="335" y="346"/>
<text x="381" y="362">
rule_body</text>
</g>
<g class="terminal">
<rect height="22" rx="10" ry="10" width="44" x="437" y="346"/>
<text x="459" y="362">
&#x27;]&#x27;</text>
</g>
<path d=" M 325 357 h 10"/>
<path d=" M 427 357 h 10"/>
</g>
</g>
<path d=" M 247 324 h 10"/>
</g>
<path d=" M 533 324 h 20 m -10 -10 v 20 m 10 -20 v 20"/>
<path d=" M 30 324 h 10"/>
<path d=" M 113 324 h 10"/>
<path d=" M 523 324 h 10"/>
</g>
<g class="sequence">
<path d=" M 10 381 v 20 m 10 -20 v 20 m -10 -10 h 20"/>
<text class="comment" x="76" y="396">
rule_elem</text>
<g class="choice">
<path d=" M 123 391 h 24 m 200 0 h 24"/>
<g class="sequence">
<g class="terminal">
<rect height="22" rx="10" ry="10" width="44" x="147" y="380"/>
<text x="169" y="396">
&#x27;(&#x27;</text>
</g>
<g class="nonterminal">
<rect height="22" width="92" x="201" y="380"/>
<text x="247" y="396">
rule_body</text>
</g>
<g class="terminal">
<rect height="22" rx="10" ry="10" width="44" x="303" y="380"/>
<text x="325" y="396">
&#x27;)&#x27;</text>
</g>
<path d=" M 191 391 h 10"/>
<path d=" M 293 391 h 10"/>
</g>
<path d=" M 123 391 a 12 12 0 0 1 12 12 v 9 m 224 0 v -9 a 12 12 0 0 1 12 -12"/>
<path d=" M 135 412 v 33 m 224 0 v -33"/>
<path d=" M 135 445 v 33 m 224 0 v -33"/>
<path d=" M 135 412 v 0 a 12 12 0 0 0 12 12 m 92 0 h 108 m -51 0 l -5 -5 m 0 10 l 5 -5 m 51 0 a 12 12 0 0 0 12 -12 v 0"/>
<g class="nonterminal">
<rect height="22" width="92" x="147" y="413"/>
<text x="193" y="429">
RULE_NAME</text>
</g>
<path d=" M 135 445 v 0 a 12 12 0 0 0 12 12 m 100 0 h 100 m -47 0 l -5 -5 m 0 10 l 5 -5 m 47 0 a 12 12 0 0 0 12 -12 v 0"/>
<g class="nonterminal">
<rect height="22" width="100" x="147" y="446"/>
<text x="197" y="462">
TOKEN_NAME</text>
</g>
<path d=" M 135 478 v 0 a 12 12 0 0 0 12 12 m 92 0 h 108 m -51 0 l -5 -5 m 0 10 l 5 -5 m 51 0 a 12 12 0 0 0 12 -12 v 0"/>
<g class="nonterminal">
<rect height="22" width="92" x="147" y="479"/>
<text x="193" y="495">
TOKEN_LIT</text>
</g>
</g>
<path d=" M 381 391 h 20 m -10 -10 v 20 m 10 -20 v 20"/>
<path d=" M 30 391 h 10"/>
<path d=" M 113 391 h 10"/>
<path d=" M 371 391 h 10"/>
</g>
<g class="sequence">
<path d=" M 10 514 v 20 m 10 -20 v 20 m -10 -10 h 20"/>
<text class="comment" x="66" y="529">
suffix</text>
<g class="choice">
<path d=" M 102 524 h 24 m 44 0 h 24"/>
<g class="terminal">
<rect height="22" rx="10" ry="10" width="44" x="126" y="513"/>
<text x="148" y="529">
&#x27;+&#x27;</text>
</g>
<path d=" M 102 524 a 12 12 0 0 1 12 12 v 9 m 68 0 v -9 a 12 12 0 0 1 12 -12"/>
<path d=" M 114 545 v 33 m 68 0 v -33"/>
<path d=" M 114 545 v 0 a 12 12 0 0 0 12 12 m 44 0 h 0 a 12 12 0 0 0 12 -12 v 0"/>
<g class="terminal">
<rect height="22" rx="10" ry="10" width="44" x="126" y="546"/>
<text x="148" y="562">
&#x27;*&#x27;</text>
</g>
<path d=" M 114 578 v 0 a 12 12 0 0 0 12 12 m 44 0 h 0 a 12 12 0 0 0 12 -12 v 0"/>
<g class="terminal">
<rect height="22" rx="10" ry="10" width="44" x="126" y="579"/>
<text x="148" y="595">
&#x27;?&#x27;</text>
</g>
</g>
<path d=" M 204 524 h 20 m -10 -10 v 20 m 10 -20 v 20"/>
<path d=" M 30 524 h 10"/>
<path d=" M 92 524 h 10"/>
<path d=" M 194 524 h 10"/>
</g>
<g class="sequence">
<path d=" M 10 614 v 20 m 10 -20 v 20 m -10 -10 h 20"/>
<text class="comment" x="80" y="629">
token_rule</text>
<g class="sequence">
<g class="nonterminal">
<rect height="22" width="100" x="130" y="613"/>
<text x="180" y="629">
TOKEN_NAME</text>
</g>
<g class="terminal">
<rect height="22" rx="10" ry="10" width="44" x="240" y="613"/>
<text x="262" y="629">
&#x27;:&#x27;</text>
</g>
<g class="nonterminal">
<rect height="22" width="92" x="294" y="613"/>
<text x="340" y="629">
TOKEN_LIT</text>
</g>
<path d=" M 230 624 h 10"/>
<path d=" M 284 624 h 10"/>
</g>
<path d=" M 396 624 h 20 m -10 -10 v 20 m 10 -20 v 20"/>
<path d=" M 30 624 h 10"/>
<path d=" M 120 624 h 10"/>
<path d=" M 386 624 h 10"/>
</g>
<g class="sequence">
<path d=" M 10 648 v 20 m 10 -20 v 20 m -10 -10 h 20"/>
<text class="comment" x="62" y="663">
COLON</text>
<g class="terminal">
<rect height="22" rx="10" ry="10" width="44" x="95" y="647"/>
<text x="117" y="663">
&#x27;:&#x27;</text>
</g>
<path d=" M 149 658 h 20 m -10 -10 v 20 m 10 -20 v 20"/>
<path d=" M 30 658 h 10"/>
<path d=" M 85 658 h 10"/>
<path d=" M 139 658 h 10"/>
</g>
<g class="sequence">
<path d=" M 10 682 v 20 m 10 -20 v 20 m -10 -10 h 20"/>
<text class="comment" x="59" y="697">
PIPE</text>
<g class="terminal">
<rect height="22" rx="10" ry="10" width="44" x="88" y="681"/>
<text x="110" y="697">
&#x27;|&#x27;</text>
</g>
<path d=" M 142 692 h 20 m -10 -10 v 20 m 10 -20 v 20"/>
<path d=" M 30 692 h 10"/>
<path d=" M 78 692 h 10"/>
<path d=" M 132 692 h 10"/>
</g>
<g class="sequence">
<path d=" M 10 716 v 20 m 10 -20 v 20 m -10 -10 h 20"/>
<text class="comment" x="66" y="731">
EQUALS</text>
<g class="terminal">
<rect height="22" rx="10" ry="10" width="44" x="102" y="715"/>
<text x="124" y="731">
&#x27;=&#x27;</text>
</g>
<path d=" M 156 726 h 20 m -10 -10 v 20 m 10 -20 v 20"/>
<path d=" M 30 726 h 10"/>
<path d=" M 92 726 h 10"/>
<path d=" M 146 726 h 10"/>
</g>
<g class="sequence">
<path d=" M 10 750 v 20 m 10 -20 v 20 m -10 -10 h 20"/>
<text class="comment" x="73" y="765">
LBRACKET</text>
<g class="terminal">
<rect height="22" rx="10" ry="10" width="44" x="116" y="749"/>
<text x="138" y="765">
&#x27;[&#x27;</text>
</g>
<path d=" M 170 760 h 20 m -10 -10 v 20 m 10 -20 v 20"/>
<path d=" M 30 760 h 10"/>
<path d=" M 106 760 h 10"/>
<path d=" M 160 760 h 10"/>
</g>
<g class="sequence">
<path d=" M 10 784 v 20 m 10 -20 v 20 m -10 -10 h 20"/>
<text class="comment" x="73" y="799">
RBRACKET</text>
<g class="terminal">
<rect height="22" rx="10" ry="10" width="44" x="116" y="783"/>
<text x="138" y="799">
&#x27;]&#x27;</text>
</g>
<path d=" M 170 794 h 20 m -10 -10 v 20 m 10 -20 v 20"/>
<path d=" M 30 794 h 10"/>
<path d=" M 106 794 h 10"/>
<path d=" M 160 794 h 10"/>
</g>
<g class="sequence">
<path d=" M 10 818 v 20 m 10 -20 v 20 m -10 -10 h 20"/>
<text class="comment" x="66" y="833">
LPAREN</text>
<g class="terminal">
<rect height="22" rx="10" ry="10" width="44" x="102" y="817"/>
<text x="124" y="833">
&#x27;(&#x27;</text>
</g>
<path d=" M 156 828 h 20 m -10 -10 v 20 m 10 -20 v 20"/>
<path d=" M 30 828 h 10"/>
<path d=" M 92 828 h 10"/>
<path d=" M 146 828 h 10"/>
</g>
<g class="sequence">
<path d=" M 10 852 v 20 m 10 -20 v 20 m -10 -10 h 20"/>
<text class="comment" x="66" y="867">
RPAREN</text>
<g class="terminal">
<rect height="22" rx="10" ry="10" width="44" x="102" y="851"/>
<text x="124" y="867">
&#x27;)&#x27;</text>
</g>
<path d=" M 156 862 h 20 m -10 -10 v 20 m 10 -20 v 20"/>
<path d=" M 30 862 h 10"/>
<path d=" M 92 862 h 10"/>
<path d=" M 146 862 h 10"/>
</g>
<g class="sequence">
<path d=" M 10 886 v 20 m 10 -20 v 20 m -10 -10 h 20"/>
<text class="comment" x="59" y="901">
PLUS</text>
<g class="terminal">
<rect height="22" rx="10" ry="10" width="44" x="88" y="885"/>
<text x="110" y="901">
&#x27;+&#x27;</text>
</g>
<path d=" M 142 896 h 20 m -10 -10 v 20 m 10 -20 v 20"/>
<path d=" M 30 896 h 10"/>
<path d=" M 78 896 h 10"/>
<path d=" M 132 896 h 10"/>
</g>
<g class="sequence">
<path d=" M 10 920 v 20 m 10 -20 v 20 m -10 -10 h 20"/>
<text class="comment" x="59" y="935">
STAR</text>
<g class="terminal">
<rect height="22" rx="10" ry="10" width="44" x="88" y="919"/>
<text x="110" y="935">
&#x27;*&#x27;</text>
</g>
<path d=" M 142 930 h 20 m -10 -10 v 20 m 10 -20 v 20"/>
<path d=" M 30 930 h 10"/>
<path d=" M 78 930 h 10"/>
<path d=" M 132 930 h 10"/>
</g>
<g class="sequence">
<path d=" M 10 954 v 20 m 10 -20 v 20 m -10 -10 h 20"/>
<text class="comment" x="80" y="969">
QUEST_MARK</text>
<g class="terminal">
<rect height="22" rx="10" ry="10" width="44" x="130" y="953"/>
<text x="152" y="969">
&#x27;?&#x27;</text>
</g>
<path d=" M 184 964 h 20 m -10 -10 v 20 m 10 -20 v 20"/>
<path d=" M 30 964 h 10"/>
<path d=" M 120 964 h 10"/>
<path d=" M 174 964 h 10"/>
</g>
</g>
</svg>

